<svg width="24" height="24" viewBox="0 0 24 24" fill="none" xmlns="http://www.w3.org/2000/svg">
<path d="M15.3748 6.74995C14.7331 6.74956 14.0942 6.83565 13.4755 7.00589C13.2312 6.60736 12.9345 6.24347 12.5933 5.92401L13.4848 4.65182C13.5413 4.57112 13.5814 4.48008 13.6027 4.3839C13.624 4.28771 13.6262 4.18827 13.6091 4.09125C13.592 3.99423 13.556 3.90152 13.503 3.81843C13.4501 3.73534 13.3813 3.66349 13.3006 3.60698C13.2199 3.55047 13.1289 3.51041 13.0327 3.48909C12.9365 3.46776 12.8371 3.46559 12.74 3.4827C12.643 3.4998 12.5503 3.53585 12.4672 3.58878C12.3841 3.64172 12.3123 3.7105 12.2558 3.7912L11.3642 5.06245C10.631 4.69227 9.82114 4.49959 8.99983 4.49995C8.94451 4.49995 8.89108 4.49995 8.8367 4.49995L8.56576 2.97276C8.55154 2.87325 8.51746 2.77761 8.46555 2.69154C8.41364 2.60546 8.34495 2.53069 8.26358 2.47168C8.1822 2.41267 8.08979 2.37063 7.99184 2.34804C7.89389 2.32545 7.7924 2.32278 7.69339 2.34019C7.59439 2.35761 7.4999 2.39474 7.41553 2.44939C7.33117 2.50405 7.25865 2.5751 7.20229 2.65833C7.14593 2.74157 7.10687 2.83528 7.08744 2.93391C7.06802 3.03253 7.06861 3.13406 7.0892 3.23245L7.3592 4.76432C6.52741 5.03944 5.77752 5.51799 5.17764 6.15651L3.90076 5.26307C3.82012 5.20518 3.7288 5.16386 3.63207 5.14153C3.53534 5.11919 3.43515 5.11628 3.33729 5.13297C3.23943 5.14965 3.14586 5.18559 3.062 5.23871C2.97813 5.29184 2.90565 5.36108 2.84875 5.44242C2.79186 5.52377 2.75167 5.6156 2.73053 5.71259C2.70939 5.80959 2.70772 5.90981 2.72561 6.00746C2.7435 6.1051 2.7806 6.19823 2.83475 6.28142C2.8889 6.36462 2.95903 6.43625 3.04107 6.49214L4.31232 7.38464C3.94083 8.11765 3.74808 8.92817 3.74982 9.74995C3.74982 9.80339 3.74982 9.85776 3.74982 9.9112L2.22264 10.1812C2.03779 10.2136 1.87179 10.3141 1.75742 10.4629C1.64305 10.6117 1.58862 10.7979 1.60487 10.9849C1.62112 11.1718 1.70686 11.3459 1.84518 11.4727C1.9835 11.5996 2.16435 11.6699 2.35201 11.6699C2.39569 11.6699 2.43928 11.6661 2.48232 11.6587L4.01232 11.3887C4.14675 11.798 4.33128 12.1891 4.5617 12.5531C3.84432 13.2194 3.3442 14.0863 3.12648 15.0409C2.90876 15.9955 2.98353 16.9935 3.34105 17.905C3.69856 18.8165 4.32226 19.5993 5.13092 20.1513C5.93958 20.7033 6.89572 20.999 7.87483 20.9999H15.3748C17.2645 20.9999 19.0768 20.2493 20.413 18.9131C21.7492 17.5769 22.4998 15.7646 22.4998 13.8749C22.4998 11.9853 21.7492 10.173 20.413 8.83681C19.0768 7.50062 17.2645 6.74995 15.3748 6.74995ZM8.71107 11.3212C7.72514 11.151 6.71074 11.2875 5.80482 11.7121C5.30354 10.8842 5.14181 9.89441 5.35347 8.94993C5.56513 8.00545 6.13379 7.17939 6.94049 6.64453C7.7472 6.10967 8.72947 5.90745 9.68184 6.08016C10.6342 6.25287 11.4829 6.78713 12.0504 7.5712C10.5205 8.37633 9.33418 9.70856 8.71107 11.3212Z" fill="black"/>
</svg>
